<svg width="19" height="18" viewBox="0 0 19 18" fill="none" xmlns="http://www.w3.org/2000/svg">
<path d="M9.77873 0C8.56776 0 7.36865 0.238517 6.24987 0.701934C5.13108 1.16535 4.11453 1.84459 3.25824 2.70087C1.52891 4.43021 0.557373 6.7757 0.557373 9.22135C0.557373 13.2972 3.2039 16.7552 6.86478 17.9816C7.32585 18.0554 7.47339 17.7695 7.47339 17.5206V15.9622C4.91907 16.5154 4.37501 14.7265 4.37501 14.7265C3.95083 13.6568 3.35144 13.371 3.35144 13.371C2.5123 12.7992 3.41599 12.8177 3.41599 12.8177C4.33813 12.8822 4.82686 13.7675 4.82686 13.7675C5.62912 15.1691 6.98466 14.7542 7.51027 14.5329C7.59326 13.9335 7.83302 13.5277 8.09122 13.2972C6.04408 13.0667 3.8955 12.2736 3.8955 8.76028C3.8955 7.73671 4.24591 6.91601 4.8453 6.2613C4.75309 6.03076 4.43034 5.07174 4.93752 3.82686C4.93752 3.82686 5.71211 3.57788 7.47339 4.76744C8.20187 4.56457 8.99491 4.46313 9.77873 4.46313C10.5625 4.46313 11.3556 4.56457 12.0841 4.76744C13.8453 3.57788 14.6199 3.82686 14.6199 3.82686C15.1271 5.07174 14.8044 6.03076 14.7121 6.2613C15.3115 6.91601 15.6619 7.73671 15.6619 8.76028C15.6619 12.2828 13.5042 13.0574 11.4478 13.288C11.7798 13.5738 12.0841 14.1363 12.0841 14.9939V17.5206C12.0841 17.7695 12.2316 18.0646 12.7019 17.9816C16.3628 16.746 19.0001 13.2972 19.0001 9.22135C19.0001 8.01039 18.7616 6.81128 18.2981 5.69249C17.8347 4.57371 17.1555 3.55715 16.2992 2.70087C15.4429 1.84459 14.4264 1.16535 13.3076 0.701934C12.1888 0.238517 10.9897 0 9.77873 0Z" fill="black"/>
</svg>
