<svg width="116" height="115" viewBox="0 0 116 115" fill="none" xmlns="http://www.w3.org/2000/svg">
<g filter="url(#filter0_ddi_530_1131)">
<rect x="8" y="5" width="100" height="100" rx="28.25" fill="white"/>
<path d="M55.4729 36.0739V78.8767C55.4729 81.991 52.9482 84.5156 49.8339 84.5156C47.4508 84.5156 45.325 83.0175 44.5235 80.7733L37.6458 61.0695M77.9029 58.8814C83.2119 58.8814 87.5157 54.5776 87.5157 49.2685C87.5157 43.9595 83.2119 39.6557 77.9029 39.6557M37.6458 61.0695C33.0567 59.1188 29.8386 54.5695 29.8386 49.2685C29.8386 42.1898 35.577 36.4514 42.6557 36.4514H48.5263C61.6659 36.4514 72.9583 32.497 77.9029 26.8386L77.9029 71.6985C72.9583 66.0401 61.6659 62.0857 48.5263 62.0857L42.6557 62.0856C40.878 62.0856 39.1848 61.7237 37.6458 61.0695Z" stroke="#F1A62D" stroke-width="3.93146" stroke-linecap="round" stroke-linejoin="round"/>
</g>
<defs>
<filter id="filter0_ddi_530_1131" x="0.9375" y="0.291667" width="114.125" height="114.125" filterUnits="userSpaceOnUse" color-interpolation-filters="sRGB">
<feFlood flood-opacity="0" result="BackgroundImageFix"/>
<feColorMatrix in="SourceAlpha" type="matrix" values="0 0 0 0 0 0 0 0 0 0 0 0 0 0 0 0 0 0 127 0" result="hardAlpha"/>
<feMorphology radius="2.35417" operator="dilate" in="SourceAlpha" result="effect1_dropShadow_530_1131"/>
<feOffset/>
<feComposite in2="hardAlpha" operator="out"/>
<feColorMatrix type="matrix" values="0 0 0 0 0.784314 0 0 0 0 0.54902 0 0 0 0 0.172549 0 0 0 0.1 0"/>
<feBlend mode="normal" in2="BackgroundImageFix" result="effect1_dropShadow_530_1131"/>
<feColorMatrix in="SourceAlpha" type="matrix" values="0 0 0 0 0 0 0 0 0 0 0 0 0 0 0 0 0 0 127 0" result="hardAlpha"/>
<feOffset dy="2.35417"/>
<feGaussianBlur stdDeviation="3.53125"/>
<feComposite in2="hardAlpha" operator="out"/>
<feColorMatrix type="matrix" values="0 0 0 0 0.784314 0 0 0 0 0.54902 0 0 0 0 0.172549 0 0 0 0.2 0"/>
<feBlend mode="normal" in2="effect1_dropShadow_530_1131" result="effect2_dropShadow_530_1131"/>
<feBlend mode="normal" in="SourceGraphic" in2="effect2_dropShadow_530_1131" result="shape"/>
<feColorMatrix in="SourceAlpha" type="matrix" values="0 0 0 0 0 0 0 0 0 0 0 0 0 0 0 0 0 0 127 0" result="hardAlpha"/>
<feOffset dy="-5.65"/>
<feComposite in2="hardAlpha" operator="arithmetic" k2="-1" k3="1"/>
<feColorMatrix type="matrix" values="0 0 0 0 0.784314 0 0 0 0 0.54902 0 0 0 0 0.172549 0 0 0 0.12 0"/>
<feBlend mode="normal" in2="shape" result="effect3_innerShadow_530_1131"/>
</filter>
</defs>
</svg>
